# xmcd
#
# Track frame offsets:
#	225
#	19957
#	39480
#	52807
#	68722
#	86642
#	110737
#	124825
#	145062
#	166827
#
# Disc length: 2504 seconds
#
# Revision: 4
# Processed by: cddbd v1.5.2PL0 Copyright (c) Steve Scherf et al.
# Submitted via: audiograbber 1.83.01
#
DISCID=8309c50a
DTITLE=Various Artist - Heineken Styles&Stars '98
DYEAR=1998
DGENRE=Pop
TTITLE0=Lighthouse Family - Raincloud
TTITLE1=Debelah Morgan - Stay
TTITLE2=Ultimate Kaos - I don't Know
TTITLE3=Alisha's Attic - Resistor
TTITLE4=Lionel Richie - Closest Thing to Heaven
TTITLE5=Karen Ramirez - Wings
TTITLE6=Ace of Base - He Decides
TTITLE7=Doctor.L - It's Bad, so Bad
TTITLE8=Pilgrimage - Through the Seas of Life
TTITLE9=Hero - Altijd Durven Denken
EXTD=Promo CD Heineken 
EXTT0=
EXTT1=
EXTT2=
EXTT3=
EXTT4=
EXTT5=
EXTT6=
EXTT7=
EXTT8=
EXTT9=
PLAYORDER=
